<svg width="100.00000000000001" height="100.00000000000001" xmlns="http://www.w3.org/2000/svg">
 <g>
  <title>Layer 1</title>
  <path fill="#ffffff" id="svg_2" d="m13.51051,24.91786c0,0 11.83427,-3.55028 11.83427,-3.55028c0,0 9.46742,7.98813 9.46742,7.98813c0,0 3.55028,5.91713 3.35332,5.85124c0.19696,0.06589 20.61107,4.20789 20.61107,4.20789c0,0 5.91713,0.59171 5.72018,0.52582c0.19696,0.06589 14.10222,-7.33052 14.10222,-7.33052c0,0 9.46742,2.071 9.46742,2.071c0,0 5.02956,7.10056 5.02956,7.10056c0,0 1.77514,6.50885 1.77514,6.50885c0,0 -1.18343,4.73371 -1.18343,4.73371c0,0 -2.36685,5.32542 -2.85967,5.55538c0.19696,0.06589 -4.24089,3.61617 -4.73371,3.55028c0.19696,0.06589 -7.19946,2.43275 -7.39642,2.36685c0.19696,0.06589 -2.46575,1.54518 -2.66271,1.47928c0.19696,0.06589 -1.87404,35.27285 -2.071,35.20695c0.19696,0.0659 -57.19925,-0.82168 -57.69206,-0.88757c0.19696,0.0659 1.08453,-11.47252 0.88757,-11.53841c0.19696,0.06589 1.67624,-5.85124 1.67624,-5.85124c0,0 0.29586,-7.39642 0.0989,-7.46231c0.19696,0.06589 -5.12847,-5.55538 -5.32542,-5.62128c0.19696,0.06589 -3.35333,-5.55538 -3.55028,-5.62128c0.19696,0.06589 -0.0989,-6.1471 -0.29586,-6.21299c0.19696,0.06589 4.33895,-9.40152 4.33895,-9.40152c0,0 -4.73371,-4.73371 -4.93066,-4.7996c0.19696,0.06589 -0.39476,-7.62638 -0.59171,-7.69227c0.19696,0.06589 4.93066,-11.17666 4.93066,-11.17666z" opacity="NaN"/>
  <g id="svg_2">
   <path stroke="#630000" stroke-width="6" id="svg_43" d="m49.2,11.2c-3.4,3.4 0.7,9.8 4.7,7.3c2.6,-1.5 0.6,-8.5 -2.4,-8.5c-0.6,0 -1.6,0.5 -2.3,1.2z"/>
   <path stroke="#630000" stroke-width="6" id="svg_44" d="m61.1,16.4c-2.6,2.8 -2.1,4.6 1.3,4.6c2.6,0 5.6,-2.8 5.6,-5.3c0,-2.6 -4.3,-2.1 -6.9,0.7z"/>
   <path stroke="#630000" stroke-width="6" id="svg_45" d="m46.6,22.5c-2.9,2.9 -2.1,5.5 1.8,5.5c3.7,0 5.9,-1.9 5.4,-4.7c-0.4,-2.4 -5.1,-2.9 -7.2,-0.8z"/>
   <path stroke="#630000" stroke-width="6" id="svg_46" d="m58,24.8c0,2.3 3,5.2 5.4,5.2c2.5,0 3.1,-2.8 1.1,-5c-2.3,-2.6 -6.5,-2.7 -6.5,-0.2z"/>
  </g>
  <g id="svg_11" fill="#fed7ad" transform="translate(0 100) scale(0.1 -0.1)">
   <path id="svg_12" d="m185,756c-48,-21 -95,-81 -95,-121c0,-50 21,-43 47,15c41,93 193,96 193,4c0,-8 9,-14 20,-14c25,0 25,11 0,60c-34,68 -93,88 -165,56z"/>
   <path id="svg_13" d="m744,651c-41,-19 -74,-54 -74,-78c0,-21 17,-15 73,22c75,51 131,46 162,-15c20,-38 40,-40 30,-2c-18,76 -110,111 -191,73z"/>
   <path id="svg_14" d="m394,607c-28,-73 137,-127 213,-71c63,47 32,67 -124,80c-70,6 -83,4 -89,-9z"/>
  </g>
  <g transform="translate(0 100) scale(0.1 -0.1)" id="svg_4" fill="#630000">
   <path id="svg_5" d="m637.50623,865c0,-8 7,-15 15,-15c8,0 15,-7 15,-15c0,-8 7,-15 15,-15c8,0 15,9 15,20c0,11 -7,20 -15,20c-8,0 -15,5 -15,10c0,6 -7,10 -15,10c-8,0 -15,-7 -15,-15z"/>
   <path id="svg_6" d="m537.50623,835c-9,-11 -22,-14 -42,-10c-25,6 -28,4 -28,-20c0,-19 5,-26 18,-24c39,4 41,0 37,-48c-9,-80 -11,-83 -66,-83c-48,0 -49,1 -69,43c-59,122 -180,146 -278,54c-62,-58 -73,-227 -15,-227c16,0 16,-1 -2,-36c-36,-70 -14,-169 50,-222c36,-29 36,-29 21,-105c-23,-109 -21,-157 4,-157c16,0 20,7 20,38c0,20 7,69 16,107c8,39 17,81 20,95c5,22 0,28 -30,43c-121,57 -74,265 67,294c15,3 27,12 27,21c0,23 -73,9 -122,-23c-44,-29 -53,-26 -67,21c-20,70 68,164 153,164c35,0 72,-34 97,-90c25,-56 25,-56 141,-65c42,-3 100,-13 129,-21c53,-16 53,-16 72,10c50,69 138,83 195,32c94,-87 17,-256 -117,-256c-33,0 -34,-7 -47,-247c-7,-123 -7,-123 21,-123c27,0 27,0 25,78c-7,231 -4,249 44,256c197,30 217,341 23,363c-55,7 -109,-10 -151,-47c-29,-26 -107,-29 -134,-5c-8,7 23,65 35,65c11,0 14,7 9,25c-6,23 -3,25 24,25c23,0 30,4 30,20c0,14 -7,20 -23,20c-13,0 -26,9 -32,22c-12,28 -38,34 -55,13z"/>
   <path id="svg_7" d="m427.50623,740c0,-11 7,-20 15,-20c8,0 15,9 15,20c0,11 -7,20 -15,20c-8,0 -15,-9 -15,-20z"/>
   <path id="svg_8" d="m643.50623,725c-3,-8 -12,-15 -21,-15c-8,0 -15,-7 -15,-15c0,-8 9,-15 19,-15c23,0 51,25 51,46c0,19 -26,18 -34,-1z"/>
   <path id="svg_9" d="m209.50623,523c2,-9 20,-21 43,-28c40,-11 40,-11 -12,-30c-57,-20 -71,-45 -25,-45c15,1 52,11 82,25c72,31 74,54 5,77c-67,22 -97,23 -93,1z"/>
   <path id="svg_10" d="m519.50623,478c-7,-7 -12,-17 -12,-23c0,-14 129,-95 152,-95c33,0 19,28 -27,54c-60,36 -57,46 15,46c47,0 60,3 60,15c0,19 -169,22 -188,3z"/>
  </g>
  <path fill="#630000" id="svg_37" d="m36.06087,68.56475c-1.13749,0.45468 -1.88377,0.27616 -2.4094,-0.11971c-0.26281,-0.19793 -0.87671,-1.02833 -1.19115,-1.72046c-0.31443,-0.69212 -0.70439,-1.87098 -0.76934,-2.51585c-0.12988,-1.28973 -2.17421,-1.09804 -2.35507,0.03262c-0.18086,1.13066 -0.06631,1.38508 -0.04534,1.84452c0.02097,0.45945 0.26085,0.93643 0.51814,1.63722c0.51459,1.40158 0.93187,2.04362 1.70335,2.97818c0.77149,0.93456 2.48632,1.17598 3.22382,1.17598c0.7375,0 2.45,-0.4125 3.33749,-1.3875c0.88749,-0.975 1.2,-1.54688 1.60937,-1.16562c0.40937,0.38126 0.47813,1.17812 1.40313,2.04062c0.925,0.8625 2.5797,1.20625 4.54375,0.6875c1.96405,-0.51875 3.03651,-1.69139 3.81366,-2.52029c0.77715,-0.82891 0.86904,-1.6082 0.46196,-2.13808c-0.40708,-0.52989 -1.59438,-0.54161 -2.15688,0.10839c-0.56249,0.64999 -0.88749,1.05937 -1.5453,1.43124c-0.65781,0.37187 -1.06719,0.50624 -1.97969,0.63124c-0.9125,0.125 -1.925,-0.25 -2.725,-2c-0.8,-1.75 -1.66875,-1.85234 -2.49688,-1.52851c-0.82812,0.32382 -1.80312,2.07382 -2.94062,2.52851z"/>
  <g id="svg_1">
   <path fill="#fd5656" id="svg_43" d="m49.2,11.2c-3.4,3.4 0.7,9.8 4.7,7.3c2.6,-1.5 0.6,-8.5 -2.4,-8.5c-0.6,0 -1.6,0.5 -2.3,1.2z"/>
   <path fill="#fd5656" id="svg_44" d="m61.1,16.4c-2.6,2.8 -2.1,4.6 1.3,4.6c2.6,0 5.6,-2.8 5.6,-5.3c0,-2.6 -4.3,-2.1 -6.9,0.7z"/>
   <path fill="#fd5656" id="svg_45" d="m46.6,22.5c-2.9,2.9 -2.1,5.5 1.8,5.5c3.7,0 5.9,-1.9 5.4,-4.7c-0.4,-2.4 -5.1,-2.9 -7.2,-0.8z"/>
   <path fill="#fd5656" id="svg_46" d="m58,24.8c0,2.3 3,5.2 5.4,5.2c2.5,0 3.1,-2.8 1.1,-5c-2.3,-2.6 -6.5,-2.7 -6.5,-0.2z"/>
  </g>
  <rect transform="rotate(55.9391 56.5721 20.9022)" stroke="null" id="svg_15" height="1.01822" width="1.01355" y="20.39314" x="56.06534" fill="#ffffff"/>
 </g>

</svg>
