<?xml version="1.0" standalone="no"?>
<!DOCTYPE svg PUBLIC "-//W3C//DTD SVG 20010904//EN"
 "http://www.w3.org/TR/2001/REC-SVG-20010904/DTD/svg10.dtd">
<svg version="1.0" xmlns="http://www.w3.org/2000/svg"
 width="700.000000pt" height="700.000000pt" viewBox="0 0 700.000000 700.000000"
 preserveAspectRatio="xMidYMid meet">
<metadata>
Created by potrace 1.14, written by Peter Selinger 2001-2017
</metadata>
<g transform="translate(0.000000,700.000000) scale(0.100000,-0.100000)"
fill="#000000" stroke="none">
<path d="M3528 6500 c-115 -29 -262 -147 -320 -256 -81 -150 -78 -342 7 -508
20 -38 35 -69 33 -70 -2 -1 -16 -8 -33 -16 -50 -24 -187 -170 -222 -236 -46
-86 -67 -175 -59 -248 25 -243 278 -379 601 -321 43 8 81 12 84 10 7 -8 -20
-116 -41 -168 -11 -26 -35 -60 -53 -76 -58 -51 -89 -56 -335 -56 -330 0 -329
-1 -480 295 -169 330 -357 534 -605 658 -409 205 -871 121 -1284 -232 -153
-131 -250 -285 -329 -526 -64 -192 -92 -369 -91 -575 0 -212 33 -356 102 -447
44 -58 88 -81 166 -87 65 -6 66 -7 69 -36 2 -21 -16 -70 -62 -161 -35 -72 -76
-167 -90 -210 -96 -294 -68 -653 74 -951 95 -200 196 -329 371 -475 208 -174
214 -205 120 -680 -126 -635 -147 -916 -80 -1055 44 -92 162 -100 212 -15 16
27 21 64 28 195 14 268 35 394 165 1012 52 248 95 471 95 496 1 88 -29 119
-206 213 -177 95 -285 191 -366 327 -158 264 -171 646 -34 986 69 172 161 310
294 444 148 148 312 241 529 300 124 33 187 68 209 114 37 77 -9 115 -141 115
-199 0 -465 -91 -706 -242 -129 -81 -175 -104 -232 -118 -94 -24 -148 29 -209
207 -30 89 -33 109 -34 213 0 93 4 129 23 190 122 388 527 736 932 800 203 32
343 -16 506 -172 118 -113 192 -224 304 -453 110 -224 140 -270 203 -313 95
-66 214 -89 662 -127 478 -41 753 -85 1088 -176 218 -60 289 -67 334 -33 15
11 61 63 101 115 91 117 148 176 237 244 441 337 1028 239 1298 -217 110 -186
150 -413 112 -634 -95 -543 -561 -953 -1084 -954 -152 -1 -194 -48 -230 -260
-33 -195 -55 -475 -106 -1405 -29 -517 -34 -779 -17 -841 19 -66 39 -78 145
-82 142 -6 172 15 187 130 5 36 2 345 -7 728 -22 905 -9 1172 67 1326 48 98
87 120 277 159 207 41 338 94 493 198 95 64 260 229 328 329 178 262 273 597
259 913 -18 396 -185 730 -457 915 -334 227 -824 250 -1227 59 -85 -41 -211
-122 -327 -214 -110 -86 -252 -131 -447 -142 -185 -10 -362 25 -449 88 -42 31
-42 32 -37 79 3 27 22 84 42 127 37 81 112 203 124 203 4 0 18 -12 32 -26 103
-112 294 -193 425 -181 179 17 304 131 335 305 20 114 -16 242 -100 352 l-42
55 28 20 c110 80 206 200 250 313 35 90 38 224 6 293 -55 122 -185 200 -331
199 -102 -1 -261 -57 -369 -132 -27 -18 -78 -64 -115 -102 l-68 -70 0 37 c0
122 -86 322 -179 417 -100 102 -238 149 -353 120z m165 -237 c80 -51 146 -196
154 -339 6 -107 -13 -165 -68 -206 -132 -99 -305 -35 -388 142 -35 75 -37 203
-4 266 44 83 111 142 184 162 43 12 74 6 122 -25z m1010 -265 c32 -16 50 -57
49 -109 -1 -73 -41 -150 -114 -223 -102 -101 -218 -145 -335 -126 -32 6 -61
10 -65 10 -3 0 -20 12 -37 26 -66 55 -32 154 93 279 88 88 162 131 256 151 56
12 120 9 153 -8z m-708 -444 c14 -22 15 -28 4 -36 -28 -18 -51 -30 -53 -26
-36 48 -37 52 -14 70 31 24 43 22 63 -8z m-330 -75 c83 -42 116 -118 95 -214
-27 -121 -132 -196 -298 -215 -147 -16 -274 22 -303 92 -29 70 2 167 83 254
80 87 151 115 283 111 75 -2 99 -7 140 -28z m617 -100 c75 -16 143 -53 204
-111 70 -66 104 -134 104 -207 0 -193 -225 -208 -406 -27 -112 112 -150 242
-90 305 44 45 103 58 188 40z"/>
<path d="M1503 3751 c-29 -18 -33 -26 -33 -66 0 -39 5 -50 40 -84 52 -50 179
-113 300 -147 100 -28 160 -53 160 -65 0 -20 -63 -51 -217 -109 -204 -76 -333
-140 -390 -195 -75 -72 -53 -119 65 -137 58 -9 86 -8 164 6 124 24 354 101
507 170 412 185 474 318 210 450 -173 87 -514 184 -674 192 -89 5 -104 3 -132
-15z"/>
<path d="M3965 3424 c-16 -2 -66 -9 -110 -15 -163 -21 -222 -50 -269 -133 -41
-72 -41 -90 0 -136 134 -148 753 -534 972 -605 88 -29 182 -2 182 51 0 77
-105 183 -301 304 -281 173 -350 243 -284 286 44 29 95 35 380 44 154 5 298
14 319 19 58 14 91 42 91 77 0 39 -46 61 -183 86 -89 16 -162 20 -437 23 -181
2 -343 1 -360 -1z"/>
<path d="M2100 2558 c-37 -20 -50 -55 -50 -133 1 -58 7 -87 39 -167 54 -136
115 -219 188 -255 50 -24 70 -28 143 -28 112 0 178 30 272 122 76 76 81 75
123 -7 80 -157 286 -195 486 -89 79 42 195 163 204 212 9 47 -12 83 -55 92
-47 10 -91 -10 -137 -64 -54 -63 -132 -102 -215 -108 -94 -7 -121 15 -220 182
-32 52 -81 80 -125 69 -15 -4 -68 -46 -118 -93 -151 -144 -243 -149 -329 -19
-36 54 -86 184 -86 224 0 52 -69 88 -120 62z"/>
</g>
</svg>
